<svg width="108" height="103" viewBox="0 0 108 103" fill="none" xmlns="http://www.w3.org/2000/svg">
<path d="M53.3037 1.55469C75.3979 1.55487 94.3431 14.9151 101.724 33.7803C101.742 33.8224 101.757 33.8658 101.773 33.9092C103.873 39.3206 105.022 45.1821 105.022 51.3096C105.022 52.5788 103.993 53.6081 102.724 53.6084C101.454 53.6084 100.425 52.579 100.425 51.3096C100.425 46.3129 99.573 41.5009 98.0039 37H74.1436C74.9048 41.4354 75.3662 46.2227 75.3662 51.3135C75.3662 52.5828 74.3376 53.6121 73.0684 53.6123C71.799 53.6122 70.7695 52.5828 70.7695 51.3135C70.7695 46.2025 70.2765 41.413 69.4746 37H37.123C36.3212 41.413 35.8272 46.2024 35.8271 51.3135C35.8271 56.4228 36.3197 61.2112 37.1211 65.623H53.3105C54.5798 65.6232 55.6094 66.6526 55.6094 67.9219C55.6091 69.191 54.5797 70.2206 53.3105 70.2207H38.0938C39.444 75.801 41.2401 80.6597 43.0381 84.6602C44.8409 88.6712 46.6406 91.8097 47.9814 93.9346C48.6465 94.9884 49.1975 95.7927 49.5791 96.3281C50.8076 96.42 52.0499 96.4678 53.3037 96.4678C54.5729 96.468 55.6025 97.4974 55.6025 98.7666C55.6023 100.036 54.5727 101.064 53.3037 101.064C51.6182 101.064 49.9508 100.985 48.3057 100.833C48.2071 100.831 48.1091 100.821 48.0117 100.807C22.0049 98.2596 1.58594 77.146 1.58594 51.3096C1.58612 23.7441 24.8297 1.55492 53.3037 1.55469ZM81.8398 57.1211C82.239 56.4124 83.2945 56.3207 83.8975 56.8877L93.4297 65.8516L95.0088 64.3672C94.9467 64.1504 94.8662 63.9503 94.8662 63.7168C94.8662 62.241 96.1346 61.049 97.7041 61.0488C99.2737 61.0488 100.542 62.2409 100.542 63.7168C100.542 65.1927 99.2737 66.3848 97.7041 66.3848C97.4559 66.3847 97.2431 66.3103 97.0127 66.252L95.4346 67.7363L104.967 76.6992C105.57 77.2662 105.472 78.2502 104.719 78.6338C100.081 80.9769 94.5384 81.1102 89.7764 79.084L88.9072 79.9014L96.0283 86.6055C97.1279 87.6478 97.1279 89.3323 96.0283 90.3662L87.4531 98.4297C86.9034 98.9465 86.185 99.205 85.458 99.2051C84.731 99.2051 84.0127 98.9464 83.4541 98.4297L76.333 91.7334L72.0938 95.7275C70.9321 96.8198 69.0435 96.8198 67.8818 95.7275L63.6689 91.7666C62.5078 90.6744 62.5078 88.8989 63.6689 87.8066L67.9082 83.8125L60.7871 77.1084C59.6875 76.0744 59.6874 74.3894 60.7959 73.3555L69.3711 65.293C69.9209 64.776 70.6489 64.5176 71.3672 64.5176C72.0853 64.5177 72.8126 64.7761 73.3623 65.293L80.4824 71.9971L81.3604 71.1709C79.2057 66.6933 79.3481 61.4819 81.8398 57.1211ZM10.5088 70.2207C16.6505 82.9631 28.8064 92.524 43.54 95.4961C42.1839 93.2724 40.513 90.2566 38.8447 86.5449C36.8336 82.0703 34.8218 76.5718 33.3711 70.2207H10.5088ZM79.3477 88.8984L85.458 94.6436L92.002 88.4902L85.8926 82.7451L79.3477 88.8984ZM64.8135 75.2324L70.9229 80.9775L77.4678 74.8232L71.3574 69.0781L64.8135 75.2324ZM8.60352 37C7.03445 41.5009 6.18363 46.3129 6.18359 51.3096C6.18359 56.3076 7.03462 61.121 8.60449 65.623H32.4521C31.6913 61.1888 31.2295 56.4027 31.2295 51.3135C31.2295 46.2226 31.6918 41.4354 32.4531 37H8.60352ZM43.5459 7.12207C28.8082 10.0929 16.6489 19.6566 10.5068 32.4023H33.3721C34.8227 26.0533 36.834 20.5565 38.8447 16.083C40.5155 12.3658 42.1887 9.34669 43.5459 7.12207ZM53.3037 6.15234C52.052 6.15236 50.8115 6.19943 49.585 6.29102C49.2031 6.82637 48.65 7.63293 47.9814 8.69238C46.6406 10.8172 44.8411 13.9564 43.0381 17.9678C41.2405 21.967 39.4448 26.8241 38.0947 32.4023H68.5029C67.1528 26.824 65.3561 21.967 63.5586 17.9678C61.7556 13.9564 59.9561 10.8172 58.6152 8.69238C57.9458 7.63158 57.3907 6.82538 57.0088 6.29004C55.7866 6.1991 54.551 6.15236 53.3037 6.15234ZM63.0488 7.11914C64.4064 9.34404 66.0804 12.3641 67.752 16.083C69.7626 20.5565 71.7742 26.0533 73.2246 32.4023H96.1006C89.9567 19.653 77.7921 10.0871 63.0488 7.11914Z" fill="#EBF7FE"/>
</svg>
