<svg width="112" height="107" viewBox="0 0 112 107" fill="none" xmlns="http://www.w3.org/2000/svg">
<path d="M12.7401 47.6444L10.1353 48.2958C5.35408 49.4912 2 53.7867 2 58.7153V68.7939C2 73.7225 5.35408 78.018 10.1353 79.2134L19.4767 81.5488C21.5103 82.0574 23.4802 80.5194 23.4802 78.4229V49.0863C23.4802 46.9898 21.5103 45.4518 19.4767 45.9604L12.7401 47.6444ZM12.7401 47.6444V44.9605C12.7401 21.234 31.9742 2 55.7006 2C79.4271 2 98.661 21.234 98.661 44.9605V47.6444M98.661 47.6444L101.266 48.2958C106.047 49.4912 109.401 53.7867 109.401 58.7153V68.7939C109.401 73.7225 106.047 78.018 101.266 79.2134L98.661 79.8648M98.661 47.6444L91.9243 45.9604C89.8907 45.4518 87.9209 46.9898 87.9209 49.0863V78.4229C87.9209 80.5194 89.8907 82.0574 91.9243 81.5488L98.661 79.8648M98.661 79.8648V82.5509V85.2359C98.661 91.1677 93.8527 95.976 87.9209 95.976H71.8107M71.8107 95.976C71.8107 91.5275 68.2042 87.9209 63.7557 87.9209H47.6455C43.1968 87.9209 39.5904 91.5275 39.5904 95.976C39.5904 100.425 43.1968 104.031 47.6455 104.031H63.7557C68.2042 104.031 71.8107 100.425 71.8107 95.976Z" stroke="#EBF7FE" stroke-width="4"/>
</svg>
