<svg width="45" height="40" viewBox="0 0 45 40" fill="none" xmlns="http://www.w3.org/2000/svg">
<path d="M18.79 28.2143H19.7666V21.1607H18.79C18.2507 21.1607 17.8135 20.7235 17.8135 20.1841V17.8516C17.8135 17.3122 18.2507 16.875 18.79 16.875H24.2588C24.7981 16.875 25.2354 17.3122 25.2354 17.8516V28.2143H26.2119C26.7513 28.2143 27.1885 28.6515 27.1885 29.1909V31.5234C27.1885 32.0628 26.7513 32.5 26.2119 32.5H18.79C18.2507 32.5 17.8135 32.0628 17.8135 31.5234V29.1909C17.8135 28.6515 18.2507 28.2143 18.79 28.2143ZM22.501 7.5C20.5593 7.5 18.9854 9.07397 18.9854 11.0156C18.9854 12.9573 20.5593 14.5312 22.501 14.5312C24.4426 14.5312 26.0166 12.9573 26.0166 11.0156C26.0166 9.07397 24.4426 7.5 22.501 7.5Z" fill="#7A7A7A"/>
</svg>
