<svg width="45" height="40" viewBox="0 0 45 40" fill="none" xmlns="http://www.w3.org/2000/svg">
<path d="M17.8683 25.2069C17.4439 24.7826 17.6651 24.9022 16.6417 24.6283C16.1773 24.5038 15.7691 24.2646 15.4 23.9779L13.1847 29.4096C12.9703 29.9355 13.3707 30.5067 13.9381 30.4853L16.5108 30.3871L18.2804 32.2563C18.671 32.6684 19.3565 32.5399 19.5709 32.0141L22.1124 25.7826C21.5831 26.0775 20.9957 26.2504 20.3883 26.2504C19.4361 26.2504 18.5416 25.8798 17.8683 25.2069ZM31.8175 29.4096L29.6021 23.9779C29.233 24.265 28.8248 24.5038 28.3604 24.6283C27.3316 24.9037 27.5572 24.7836 27.1339 25.2069C26.4605 25.8798 25.5655 26.2504 24.6134 26.2504C24.006 26.2504 23.4186 26.0771 22.8893 25.7826L25.4308 32.0141C25.6451 32.5399 26.3312 32.6684 26.7213 32.2563L28.4913 30.3871L31.0641 30.4853C31.6314 30.5067 32.0318 29.935 31.8175 29.4096ZM25.9679 24.102C26.714 23.3427 26.7994 23.4081 27.8619 23.1186C28.5401 22.9335 29.0704 22.3939 29.2521 21.7035C29.6173 20.3168 29.5226 20.4843 30.5191 19.4696C31.0157 18.9643 31.2096 18.2274 31.0279 17.537C30.6632 16.1513 30.6627 16.3446 31.0279 14.9574C31.2096 14.267 31.0157 13.5302 30.5191 13.0248C29.5226 12.0102 29.6173 12.1772 29.2521 10.7909C29.0704 10.1005 28.5401 9.56094 27.8619 9.37588C26.5006 9.0043 26.6646 9.10147 25.6671 8.08633C25.1705 7.58096 24.4464 7.38321 23.7682 7.56826C22.4073 7.93936 22.5973 7.93985 21.234 7.56826C20.5558 7.38321 19.8316 7.58047 19.3351 8.08633C18.3385 9.10098 18.5025 9.0043 17.1407 9.37588C16.4625 9.56094 15.9322 10.1005 15.7506 10.7909C15.3858 12.1772 15.4801 12.0102 14.4835 13.0248C13.9869 13.5302 13.7926 14.267 13.9747 14.9574C14.3395 16.3422 14.3399 16.1488 13.9747 17.5365C13.7931 18.227 13.9869 18.9638 14.4835 19.4696C15.4801 20.4843 15.3854 20.3168 15.7506 21.7035C15.9322 22.3939 16.4625 22.9335 17.1407 23.1186C18.2335 23.4164 18.315 23.3695 19.0343 24.102C19.6803 24.7597 20.6866 24.8773 21.463 24.3861C21.7734 24.189 22.1336 24.0844 22.5013 24.0844C22.8691 24.0844 23.2292 24.189 23.5396 24.3861C24.3155 24.8773 25.3219 24.7597 25.9679 24.102ZM17.8946 16.0922C17.8946 13.5028 19.9571 11.4037 22.5011 11.4037C25.045 11.4037 27.1075 13.5028 27.1075 16.0922C27.1075 18.6815 25.045 20.7807 22.5011 20.7807C19.9571 20.7807 17.8946 18.6815 17.8946 16.0922Z" fill="#7A7A7A"/>
</svg>
