<svg width="45" height="40" viewBox="0 0 45 40" fill="none" xmlns="http://www.w3.org/2000/svg">
<path d="M22.1695 15.3231L14.1673 21.9138V29.0271C14.1673 29.2113 14.2405 29.3879 14.3707 29.5182C14.5009 29.6484 14.6776 29.7216 14.8618 29.7216L19.7255 29.709C19.9091 29.7081 20.0848 29.6345 20.2143 29.5044C20.3438 29.3742 20.4165 29.1981 20.4164 29.0145V24.8605C20.4164 24.6763 20.4896 24.4996 20.6198 24.3694C20.7501 24.2392 20.9267 24.166 21.1109 24.166H23.8887C24.0728 24.166 24.2495 24.2392 24.3797 24.3694C24.51 24.4996 24.5831 24.6763 24.5831 24.8605V29.0115C24.5828 29.1029 24.6006 29.1934 24.6354 29.2779C24.6701 29.3624 24.7212 29.4392 24.7857 29.504C24.8503 29.5687 24.9269 29.62 25.0113 29.655C25.0957 29.6901 25.1862 29.7081 25.2776 29.7081L30.1395 29.7216C30.3237 29.7216 30.5004 29.6484 30.6306 29.5182C30.7608 29.3879 30.834 29.2113 30.834 29.0271V21.9091L22.8335 15.3231C22.7395 15.2473 22.6223 15.206 22.5015 15.206C22.3807 15.206 22.2635 15.2473 22.1695 15.3231ZM34.8097 19.8027L31.1812 16.8118V10.8001C31.1812 10.662 31.1263 10.5295 31.0287 10.4318C30.931 10.3342 30.7985 10.2793 30.6604 10.2793H28.2298C28.0917 10.2793 27.9592 10.3342 27.8615 10.4318C27.7639 10.5295 27.709 10.662 27.709 10.8001V13.9516L23.8231 10.7546C23.4502 10.4477 22.9823 10.2799 22.4993 10.2799C22.0164 10.2799 21.5485 10.4477 21.1756 10.7546L10.189 19.8027C10.1363 19.8463 10.0926 19.8999 10.0606 19.9603C10.0286 20.0208 10.0088 20.087 10.0023 20.1551C9.99587 20.2232 10.0029 20.2919 10.023 20.3573C10.0431 20.4227 10.076 20.4835 10.1196 20.5362L11.2263 21.8817C11.2698 21.9346 11.3234 21.9784 11.3838 22.0106C11.4443 22.0428 11.5105 22.0628 11.5786 22.0693C11.6468 22.0759 11.7156 22.069 11.7811 22.0489C11.8466 22.0289 11.9075 21.9961 11.9603 21.9525L22.1695 13.5436C22.2635 13.4678 22.3807 13.4265 22.5015 13.4265C22.6223 13.4265 22.7395 13.4678 22.8335 13.5436L33.0432 21.9525C33.0959 21.9961 33.1567 22.0289 33.2221 22.049C33.2875 22.0691 33.3562 22.0762 33.4243 22.0697C33.4924 22.0633 33.5586 22.0435 33.6191 22.0114C33.6795 21.9794 33.7331 21.9358 33.7767 21.883L34.8835 20.5375C34.927 20.4845 34.9597 20.4234 34.9796 20.3577C34.9995 20.2921 35.0062 20.2231 34.9993 20.1548C34.9925 20.0865 34.9722 20.0203 34.9396 19.9598C34.9071 19.8994 34.8629 19.846 34.8097 19.8027Z" fill="#7A7A7A"/>
</svg>
