<svg width="45" height="40" viewBox="0 0 45 40" fill="none" xmlns="http://www.w3.org/2000/svg">
<path d="M17.501 20C19.9189 20 21.876 18.043 21.876 15.625C21.876 13.207 19.9189 11.25 17.501 11.25C15.083 11.25 13.126 13.207 13.126 15.625C13.126 18.043 15.083 20 17.501 20ZM20.501 21.25H20.1768C19.3643 21.6406 18.4619 21.875 17.501 21.875C16.54 21.875 15.6416 21.6406 14.8252 21.25H14.501C12.0166 21.25 10.001 23.2656 10.001 25.75V26.875C10.001 27.9102 10.8408 28.75 11.876 28.75H23.126C24.1611 28.75 25.001 27.9102 25.001 26.875V25.75C25.001 23.2656 22.9854 21.25 20.501 21.25ZM28.751 20C30.8213 20 32.501 18.3203 32.501 16.25C32.501 14.1797 30.8213 12.5 28.751 12.5C26.6807 12.5 25.001 14.1797 25.001 16.25C25.001 18.3203 26.6807 20 28.751 20ZM30.626 21.25H30.4775C29.9346 21.4375 29.3604 21.5625 28.751 21.5625C28.1416 21.5625 27.5674 21.4375 27.0244 21.25H26.876C26.0791 21.25 25.3447 21.4805 24.7002 21.8516C25.6533 22.8789 26.251 24.2422 26.251 25.75V27.25C26.251 27.3359 26.2314 27.418 26.2275 27.5H33.126C34.1611 27.5 35.001 26.6602 35.001 25.625C35.001 23.207 33.0439 21.25 30.626 21.25Z" fill="#7A7A7A"/>
</svg>
