<svg width="45" height="40" viewBox="0 0 45 40" fill="none" xmlns="http://www.w3.org/2000/svg">
<path d="M20.8955 29.98L18.5127 29.2886C18.2627 29.2183 18.1221 28.9566 18.1924 28.7066L23.5244 10.3394C23.5947 10.0894 23.8564 9.94874 24.1064 10.0191L26.4893 10.7105C26.7393 10.7808 26.8799 11.0425 26.8096 11.2925L21.4775 29.6597C21.4033 29.9097 21.1455 30.0542 20.8955 29.98ZM16.4424 25.5972L18.1416 23.7847C18.3213 23.5933 18.3096 23.2886 18.1104 23.1128L14.5713 19.9995L18.1104 16.8862C18.3096 16.7105 18.3252 16.4058 18.1416 16.2144L16.4424 14.4019C16.2666 14.2144 15.9697 14.2026 15.7783 14.3823L10.1494 19.6558C9.9502 19.8394 9.9502 20.1558 10.1494 20.3394L15.7783 25.6167C15.9697 25.7964 16.2666 25.7886 16.4424 25.5972ZM29.2236 25.6206L34.8525 20.3433C35.0518 20.1597 35.0518 19.8433 34.8525 19.6597L29.2236 14.3784C29.0361 14.2026 28.7393 14.2105 28.5596 14.398L26.8604 16.2105C26.6807 16.4019 26.6924 16.7066 26.8916 16.8823L30.4307 19.9995L26.8916 23.1128C26.6924 23.2886 26.6768 23.5933 26.8604 23.7847L28.5596 25.5972C28.7354 25.7886 29.0322 25.7964 29.2236 25.6206Z" fill="#7A7A7A"/>
</svg>
