<svg width="540" height="43" viewBox="0 0 540 43" fill="none" xmlns="http://www.w3.org/2000/svg">
<path fill-rule="evenodd" clip-rule="evenodd" d="M28.2969 1.44063C26.5662 0.505711 25.1674 0.0114898 23.7813 0.000196323C22.3943 -0.0110962 21.0292 0.461741 19.3653 1.44258H19.3643L9.02639 7.80586C8.77276 7.95946 8.78745 8.33097 9.0508 8.46504L9.73537 8.79707C10.9743 9.37275 12.0269 9.71621 13.5382 10.2093L13.5382 10.2093C13.9154 10.3324 14.3212 10.4648 14.7656 10.6125C14.873 10.6483 14.9917 10.6343 15.0869 10.5773L15.0879 10.5764L21.6494 6.54219L21.6485 6.54121C22.5267 6.01295 23.2585 5.77565 23.9815 5.78633C24.7052 5.79705 25.4297 6.05725 26.2949 6.54317L26.2959 6.54414L38.2158 12.9191L38.2403 12.9318L38.2666 12.924C39.3306 12.5757 39.9963 12.1571 40.3789 11.4982C40.7595 10.8425 40.8524 9.96008 40.8047 8.70234L40.8037 8.66621L40.7725 8.64863L28.2989 1.4416L28.2969 1.44063ZM84.447 1.7671C80.8377 1.61026 79.1005 1.95372 77.0219 3.99464L55.4949 41.1124H61.4331L81.4769 8.44971L97.8083 39.6273C98.9439 40.4314 99.194 40.5505 100.778 41.1124H105.231L84.447 1.7671ZM182.441 1.7671C178.831 1.61026 177.094 1.95372 175.017 3.99464L153.489 41.1124H159.429L179.471 8.44971L195.802 39.6273C196.938 40.4314 197.19 40.5505 198.772 41.1124H203.225L182.441 1.7671ZM391.745 4.01655C393.821 1.97365 395.559 1.63217 399.168 1.78902L419.952 41.1323H415.499C413.917 40.5724 413.665 40.4533 412.529 39.6473L396.198 8.46966L376.154 41.1323H370.216L391.745 4.01655ZM126.77 1.7557H129.738C131.257 2.38704 131.989 3.03424 132.708 4.72575V41.2538H128.827C127.62 40.6999 127.258 40.1857 126.77 38.8734V1.7557ZM4.35645 8.53573L34.1836 19.7681H34.1846C39.4617 21.5965 42.3996 24.0439 43.2422 26.6441C44.0872 29.252 42.8161 31.9801 39.7578 34.3433L39.752 34.3482L28.9414 40.9195L28.9355 40.9224C26.8497 41.8946 25.1734 42.2453 23.3896 41.9654C21.61 41.6862 19.7303 40.7806 17.2354 39.2574L10.583 35.733H10.5811C8.5621 34.5874 7.24624 33.5899 6.43066 32.4332C5.61342 31.2739 5.30318 29.9605 5.28125 28.1939V17.0006C5.28125 16.7615 5.49554 16.5908 5.7168 16.6207L5.81152 16.6461C6.32498 16.8585 6.76977 17.0392 7.18032 17.2059L7.18074 17.2061L7.18103 17.2062L7.18132 17.2063C8.29599 17.659 9.15842 18.0093 10.458 18.6148C10.5921 18.6771 10.6777 18.8114 10.6777 18.9615V26.8023L10.6982 27.0894C10.7524 27.7354 10.8603 28.2157 11.0732 28.6148C11.3159 29.0694 11.6986 29.4255 12.3125 29.7994L21.4541 35.3433H21.4551C22.5121 35.9391 23.2993 36.2261 24.0752 36.2232C24.8504 36.2203 25.6243 35.9282 26.6553 35.3453L35.7949 29.5308C36.1367 29.1749 36.3965 28.8652 36.5723 28.5836C36.7487 28.3009 36.8382 28.05 36.8438 27.8121C36.8546 27.3403 36.5358 26.8866 35.8027 26.3092L30.3682 24.0055L0.0605469 12.5933L0 12.5709L0.0224609 12.5103L0.933594 10.0846L0.938477 10.0719L0.947266 10.0631C1.44133 9.53807 1.88205 9.17001 2.4043 8.92635C2.92652 8.68274 3.52529 8.56577 4.33105 8.53182L4.34375 8.53084L4.35645 8.53573ZM283.445 1.68148V4.74301L283.437 4.75863C283.16 5.31983 282.925 5.74604 282.592 6.1014C282.259 6.45772 281.831 6.73899 281.174 7.02133L281.161 7.02718H256.667C253.722 8.50185 252.262 10.8868 252.261 13.1688C252.261 15.451 253.723 17.6512 256.668 18.7567C257.765 18.8491 258.531 18.9944 259.109 19.3299C259.694 19.6691 260.078 20.1966 260.427 21.0282L260.433 21.0418V24.1014H255.663L255.653 24.0985C249.058 22.2347 245.746 17.5699 245.746 12.8914C245.745 8.21295 249.057 3.54815 255.653 1.68441L255.663 1.68148H283.445ZM276.713 18.7734L276.698 18.7666H270.67V18.8408L270.668 21.8105V21.8251L270.673 21.8398C271.098 22.862 271.587 23.5132 272.296 23.9599C272.999 24.4031 273.912 24.6395 275.173 24.8496C278.123 26.3277 279.576 28.347 279.576 30.3466C279.576 32.345 278.125 34.3628 275.179 35.8408H249.946L249.935 35.8437C249.134 36.099 248.531 36.3341 248.054 36.6718C247.573 37.0116 247.223 37.4527 246.92 38.1113L246.913 38.1259V41.3808H276.699L276.714 41.374C282.3 38.6687 285.106 34.3287 285.106 30.0009C285.106 25.6728 282.299 21.3814 276.713 18.7734ZM309.349 4.72575V1.7557H340.527C352.405 6.95329 352.405 18.8295 340.527 24.7676H315.289V38.8734L312.651 41.3193H309.349V18.8295H338.301C344.982 16.602 344.982 9.17883 338.301 7.69579H313.061C311.197 7.02674 310.604 6.47085 309.349 4.72575ZM476.357 1.7557H456.315C434.055 4.72575 429.602 35.9034 456.315 41.099H476.357V38.1309L474.131 35.9034H455.572C437.025 29.9653 442.221 9.53818 455.572 7.69579H474.131L474.21 7.63896L474.362 7.53004C475.122 6.98516 475.726 6.55221 476.357 5.46826V1.7557ZM538.799 4.74398V1.68148H499.305V6.2391L499.325 6.26058C500.082 7.09438 500.639 7.47204 501.585 7.76644L501.595 7.77035H535.772L535.789 7.76156C536.564 7.36774 537.117 7.00581 537.575 6.54574C538.033 6.08565 538.393 5.53106 538.791 4.75961L538.799 4.74398ZM535.086 18.7666V22.5751L535.075 22.5937C534.647 23.2479 534.265 23.7118 533.803 24.0624C533.341 24.4133 532.802 24.6476 532.062 24.8505L532.052 24.8535H499.305V20.3076L499.314 20.291C499.505 19.9342 499.689 19.6728 499.924 19.4414C500.159 19.2106 500.442 19.0116 500.826 18.7773L500.843 18.7666H535.086ZM536.52 35.8446L536.509 35.8407H501.599L501.591 35.8427C501.046 35.9602 500.627 36.0873 500.269 36.3134C499.909 36.5402 499.617 36.8627 499.316 37.3612L499.305 37.3798V41.1845H539.031V38.3651L539.03 38.3583C538.886 37.6296 538.65 37.1235 538.248 36.7372C537.847 36.3529 537.29 36.0946 536.52 35.8446Z" fill="white"/>
</svg>
