<svg display="block" role="presentation" viewBox="0 0 61 60" xmlns="http://www.w3.org/2000/svg"><g d="M 51.661 8.784 C 54.67 11.904 58.592 16.31 60.243 25.44 C 60.807 28.555 60.702 33.746 59.677 37.368 C 59.614 37.589 58.047 45.667 50.493 52.5 C 41.758 60.402 32.104 60.391 30.376 60.389 C 18.029 60.374 9.425 52.862 6.292 48.481 C 4.761 46.341 -2.974 36.297 1.244 21.63 C 5.866 5.559 24.398 -5.427 42.858 2.8 C 47.549 4.891 51.043 8.199 51.661 8.784 Z M 46.298 53.354 C 67.51 38.331 60.218 7.571 35.856 2.436 C 24.437 0.03 10.926 5.043 4.754 17.794 C 0.025 27.565 1.202 39.07 8.226 47.83 C 8.275 47.891 8.28 47.885 8.86 48.575 C 21.404 62.296 37.436 59.631 46.298 53.354 Z M 32.034 16.972 C 30.667 18.077 29.146 17.418 28.377 19.081 C 27.348 21.307 26.919 20.951 24.773 22.122 C 23.053 23.061 23.68 27.121 18.842 26.102 C 18.284 25.984 18.124 25.492 16.063 25.907 C 13.313 26.462 14.579 28.329 14.711 28.524 C 14.764 28.602 15.432 29.237 14.873 30.034 C 13.981 31.306 11.605 28.114 12.981 25.92 C 13.811 24.596 16.841 23.548 18.598 24.291 C 21.565 25.547 21.367 23.407 22.6 21.881 C 24.577 19.434 25.848 20.463 26.536 18.732 C 27.392 16.579 29.294 16.148 29.611 16.076 C 30.755 15.817 31.05 15.335 30.144 14.589 C 29.445 14.013 28.063 13.831 27.333 12.662 C 26.954 12.055 26.715 11.163 25.95 12.151 C 25.131 13.209 24.338 16.738 20.957 14.718 C 18.813 13.437 19.588 11.374 19.696 11.087 C 20.403 9.204 21.779 8.574 20.692 8.811 C 19.818 9.002 18.726 7.98 18.038 8.424 C 17.559 8.733 15.964 10.152 14.658 9.351 C 14.204 9.073 14.286 8.22 14.778 8.044 C 15.81 7.674 15.945 7.977 16.777 7.276 C 19.116 5.302 19.752 7.73 21.484 6.98 C 21.56 6.947 22.267 6.431 22.978 6.833 C 24.166 7.506 22.756 9.629 22.18 10.245 C 19.804 12.78 22.789 14.578 23.563 12.913 C 24.41 11.09 26.18 8.835 27.737 10.277 C 28.99 11.438 28.572 11.91 29.957 12.566 C 30.268 12.714 32.7 13.866 32.485 16.047 C 32.446 16.442 32.085 16.907 32.034 16.972 Z M 47.055 29.362 C 47.144 27.757 47.251 26.284 48.48 24.966 C 49.616 23.75 49.912 23.906 50.334 22.301 C 51.04 19.621 52.385 20.091 53.067 19.143 C 53.382 18.705 53.429 18.755 53.747 18.324 C 54.466 17.35 55.188 18.107 55.2 18.126 C 55.984 19.395 53.56 20.81 53.021 21.182 C 51.284 22.379 52.707 23.552 50.284 25.608 C 50.084 25.778 48.979 26.715 48.822 28.552 C 48.5 32.304 50.476 34.472 50.642 34.711 C 50.738 34.849 51.328 35.697 52.636 35.353 C 53.382 35.157 53.354 35.098 53.94 34.598 C 55.222 33.504 55.908 34.852 55.391 35.473 C 53.032 38.304 50.009 37.032 49.068 35.606 C 47.08 32.592 47.096 29.98 47.055 29.362 Z M 36.772 39.62 C 37.38 41.417 34.562 41.301 33.512 38.82 C 33.419 38.6 33.317 37.675 31.529 37.515 C 29.81 37.36 28.995 34.748 27.595 34.948 C 25.905 35.188 25.897 35.214 24.233 34.883 C 22.925 34.623 22.832 35.288 20.754 36.036 C 20.099 36.271 18.01 35.111 20.759 34.201 C 22.642 33.578 22.896 32.53 24.935 33.362 C 26.767 34.11 27.587 32.11 30.103 34.348 C 30.902 35.059 30.771 35.795 32.91 36.077 C 34.572 36.296 35.402 38.753 35.606 38.906 C 36.129 39.299 36.354 39.041 36.772 39.62 Z M 24.144 55.267 C 24.149 55.046 24.429 50.882 24.106 49.249 C 23.491 46.147 21.283 47.359 19.987 44.828 C 19.364 43.61 18.507 41.85 19.952 41.635 C 21.403 41.42 20.303 44.155 23.093 45.387 C 26.654 46.96 26.022 50.626 25.951 54.572 C 25.912 56.758 24.253 56.498 24.144 55.267 Z M 6.947 22.082 C 7.254 22.933 7.319 22.894 7.903 23.579 C 9.265 25.181 8.056 27.621 9.621 29.153 C 10.888 30.395 13.5 30.56 12.792 32.161 C 12.51 32.798 11.556 32.248 11.464 32.195 C 10.741 31.778 10.754 31.769 9.997 31.427 C 5.613 29.449 8.006 26.483 6.346 24.43 C 6.18 24.224 4.85 22.58 5.058 21.386 C 5.207 20.531 6.358 20.181 6.732 21.384 C 6.75 21.44 6.748 21.436 6.947 22.082 Z M 41.049 41.532 C 41.393 40.495 42.272 40.999 42.427 41.151 C 44.347 43.037 42.791 45.683 42.375 46.957 C 42.276 47.259 41.607 49.309 40.395 50.393 C 38.894 51.734 37.937 50.022 39.063 49.189 C 39.916 48.557 39.873 48.497 40.479 46.987 C 41.041 45.584 41.52 44.085 41.662 43.712 C 42.021 42.765 40.963 42.532 41.049 41.532 Z M 46.858 12.777 C 46.855 12.731 46.933 12.706 46.931 12.66 C 46.919 12.469 46.824 12.598 46.635 12.616 C 46.508 12.627 45.671 12.516 45.588 12.505 C 43.568 12.236 44.509 10.517 45.579 10.727 C 46.95 10.996 47.671 10.933 48.13 10.936 C 49.225 10.944 49.483 11.882 49.49 12.198 C 49.557 15.444 49.549 15.86 48.943 15.93 C 47.697 16.074 48.054 14.085 48.059 13.922 C 48.065 13.737 47.857 13.641 47.805 13.942 C 47.696 14.578 47.69 14.57 47.519 15.198 C 47.003 17.096 45.671 15.857 45.857 15.218 C 46.535 12.887 46.71 12.953 46.858 12.777 Z M 36.855 8.845 C 37.396 8.101 37.491 8.192 38.404 8.057 C 39.355 7.916 37.531 6.61 37.97 5.76 C 38.74 4.266 41.446 7.599 40.353 9.092 C 39.812 9.832 39.666 9.643 38.749 9.655 C 38.097 9.664 38.192 11.408 37.652 12.309 C 36.61 14.048 34.5 12.578 35.882 11.569 C 36.879 10.841 36.284 9.804 36.855 8.845 Z M 14.882 32.388 C 14.902 32.369 14.915 32.342 14.935 32.323 C 17.256 30.136 19.52 33.102 18.415 34.783 C 16.808 37.23 12.96 35.005 14.882 32.388 Z M 34.324 50.65 C 36.511 49.741 38.236 52.642 36.613 54.206 C 34.365 56.375 31.417 52.394 34.324 50.65 Z M 33.379 56.298 C 33.372 56.304 31.292 57.821 30.871 56.402 C 30.604 55.504 33.56 54.12 33.537 55.95 C 33.535 56.141 33.492 56.116 33.379 56.298 Z M 42.343 32.601 C 41.779 33.651 40.596 32.982 40.923 32.007 C 41.026 31.701 41.349 30.031 42.366 30.781 C 42.979 31.233 42.455 32.303 42.343 32.601 Z M 39.202 38.152 C 39.228 38.095 39.431 37.48 39.978 37.477 C 41.347 37.467 40.64 39.866 39.863 39.876 C 38.302 39.897 39.194 38.171 39.202 38.152 Z M 32.69 21.69 C 33.207 22.295 33.281 22.621 32.075 23.387 C 30.99 24.076 30.217 22.911 30.998 22.214 C 31.984 21.333 32.564 21.626 32.69 21.69 Z M 44.97 19.273 C 44.785 18.863 44.802 18.619 45.321 17.441 C 45.341 17.394 45.455 17.137 45.882 17.135 C 47.108 17.129 46.54 18.593 46.491 18.72 C 45.908 20.222 45.115 19.392 44.97 19.273 Z M 43.316 26.251 C 42.07 25.724 43.266 23.433 44.129 23.916 C 44.819 24.302 44.605 24.898 44.391 25.516 C 44.065 26.45 43.417 26.277 43.316 26.251 Z M 35.635 49.396 C 35.3 48.943 35.381 48.879 35.795 48.039 C 36.264 47.086 37.019 47.39 37.32 47.814 C 37.633 48.254 37.058 50.5 35.635 49.396 Z M 39.452 42.581 C 39.404 42.678 39.275 43.369 38.486 43.229 C 36.962 42.958 38.557 39.727 39.629 41.296 C 39.881 41.666 39.497 42.447 39.452 42.581 Z M 31.55 48.116 C 31.597 48.086 32.029 47.81 32.213 47.886 C 34.639 48.883 33.181 50.244 32.582 49.917 C 31.031 49.069 31.076 48.682 31.55 48.116 Z M 20.027 37.943 C 19.206 39.171 17.639 37.396 17.998 36.639 C 18.524 35.531 20.419 36.968 20.05 37.903 C 20.045 37.917 20.032 37.929 20.027 37.943 Z M 38.533 44.528 C 39.192 45.655 37.439 47.54 36.842 45.95 C 36.667 45.483 37.387 43.472 38.533 44.528 Z M 41.852 28.863 C 41.879 28.751 42.08 27.905 42.349 27.52 C 42.594 27.168 44.044 26.919 43.535 28.622 C 43.002 30.406 41.89 29.624 41.852 28.863 Z M 40.323 36.305 C 40.27 36.26 39.897 35.937 40.027 35.489 C 40.4 34.204 40.541 34.231 40.67 34.179 C 41.985 33.643 41.898 35.393 41.385 36.181 C 41.036 36.719 40.896 36.575 40.323 36.305 Z M 43.83 22.052 L 44.012 21.344 C 44.55 19.741 45.799 20.766 45.623 21.462 C 45.046 23.748 43.839 22.882 43.83 22.052 Z M 44.867 14.887 C 44.611 15.74 43.29 16.166 42.903 15.948 C 42.531 15.739 42.369 15.018 42.824 14.69 C 43.865 13.94 44.478 13.827 44.827 14.567 C 44.889 14.699 44.86 14.698 44.867 14.887 Z M 30.424 46.93 C 30.461 49.253 26.933 46.733 28.674 45.948 C 29.097 45.758 30.148 46.211 30.424 46.93 Z M 26.123 43.491 C 26.828 43.324 28.499 44.374 27.58 45.301 C 27.016 45.87 24.502 44.385 26.123 43.491 Z M 38.618 17.98 C 39.044 18.697 38.817 18.978 37.595 19.626 C 37.058 19.911 35.48 18.823 37.607 17.801 C 38.137 17.546 38.557 17.925 38.618 17.98 Z M 20.691 38.972 C 20.817 38.864 21.057 38.505 21.497 38.756 C 23.866 40.104 21.982 40.776 21.962 40.776 C 21.847 40.778 19.871 40.181 20.691 38.972 Z M 23.223 41.287 C 23.272 41.23 23.675 40.771 24.113 40.98 C 26.3 42.021 25.021 43.275 24.263 42.87 C 23.157 42.281 22.908 41.94 23.223 41.287 Z M 35.619 19.816 C 36.603 20.901 34.698 21.958 33.99 21.449 C 32.954 20.706 34.72 19.23 35.619 19.816 Z M 29.784 24.955 C 29.498 25.211 28.426 26.4 27.736 25.291 C 27.231 24.48 29.21 23.32 29.766 24.051 C 30.075 24.456 29.821 24.892 29.784 24.955 Z M 23.895 28.906 C 21.75 30.665 21.786 28.674 21.948 28.454 C 22.443 27.779 24.027 27.188 24.102 28.318 C 24.124 28.652 24.111 28.659 23.895 28.906 Z M 25.172 26.204 C 25.253 26.149 26.181 25.35 26.762 25.886 C 27.71 26.76 25.501 28.197 24.867 27.323 C 24.363 26.625 24.904 26.386 25.172 26.204 Z M 21.162 30.29 C 21.21 30.843 21.058 31.025 20.083 31.543 C 19.373 31.921 18.109 31.189 19.489 30.251 C 20.416 29.621 20.728 29.394 21.162 30.29 Z M 40.02 16.418 C 40.11 16.358 40.89 15.832 41.284 15.931 C 41.724 16.042 41.762 16.566 41.767 16.634 C 41.817 17.334 40.312 18.246 39.781 17.558 C 39.26 16.882 39.995 16.443 40.02 16.418 Z" fill="transparent" height="60.38871096938092px" id="bYKysAWPo" width="60.58298091289174px"><path d="M 51.661 8.784 C 54.67 11.904 58.592 16.31 60.243 25.44 C 60.807 28.555 60.702 33.746 59.677 37.368 C 59.614 37.589 58.047 45.667 50.493 52.5 C 41.758 60.402 32.104 60.391 30.376 60.389 C 18.029 60.374 9.425 52.862 6.292 48.481 C 4.761 46.341 -2.974 36.297 1.244 21.63 C 5.866 5.559 24.398 -5.427 42.858 2.8 C 47.549 4.891 51.043 8.199 51.661 8.784 Z M 46.298 53.354 C 67.51 38.331 60.218 7.571 35.856 2.436 C 24.437 0.03 10.926 5.043 4.754 17.794 C 0.025 27.565 1.202 39.07 8.226 47.83 C 8.275 47.891 8.28 47.885 8.86 48.575 C 21.404 62.296 37.436 59.631 46.298 53.354 Z M 32.034 16.972 C 30.667 18.077 29.146 17.418 28.377 19.081 C 27.348 21.307 26.919 20.951 24.773 22.122 C 23.053 23.061 23.68 27.121 18.842 26.102 C 18.284 25.984 18.124 25.492 16.063 25.907 C 13.313 26.462 14.579 28.329 14.711 28.524 C 14.764 28.602 15.432 29.237 14.873 30.034 C 13.981 31.306 11.605 28.114 12.981 25.92 C 13.811 24.596 16.841 23.548 18.598 24.291 C 21.565 25.547 21.367 23.407 22.6 21.881 C 24.577 19.434 25.848 20.463 26.536 18.732 C 27.392 16.579 29.294 16.148 29.611 16.076 C 30.755 15.817 31.05 15.335 30.144 14.589 C 29.445 14.013 28.063 13.831 27.333 12.662 C 26.954 12.055 26.715 11.163 25.95 12.151 C 25.131 13.209 24.338 16.738 20.957 14.718 C 18.813 13.437 19.588 11.374 19.696 11.087 C 20.403 9.204 21.779 8.574 20.692 8.811 C 19.818 9.002 18.726 7.98 18.038 8.424 C 17.559 8.733 15.964 10.152 14.658 9.351 C 14.204 9.073 14.286 8.22 14.778 8.044 C 15.81 7.674 15.945 7.977 16.777 7.276 C 19.116 5.302 19.752 7.73 21.484 6.98 C 21.56 6.947 22.267 6.431 22.978 6.833 C 24.166 7.506 22.756 9.629 22.18 10.245 C 19.804 12.78 22.789 14.578 23.563 12.913 C 24.41 11.09 26.18 8.835 27.737 10.277 C 28.99 11.438 28.572 11.91 29.957 12.566 C 30.268 12.714 32.7 13.866 32.485 16.047 C 32.446 16.442 32.085 16.907 32.034 16.972 Z M 47.055 29.362 C 47.144 27.757 47.251 26.284 48.48 24.966 C 49.616 23.75 49.912 23.906 50.334 22.301 C 51.04 19.621 52.385 20.091 53.067 19.143 C 53.382 18.705 53.429 18.755 53.747 18.324 C 54.466 17.35 55.188 18.107 55.2 18.126 C 55.984 19.395 53.56 20.81 53.021 21.182 C 51.284 22.379 52.707 23.552 50.284 25.608 C 50.084 25.778 48.979 26.715 48.822 28.552 C 48.5 32.304 50.476 34.472 50.642 34.711 C 50.738 34.849 51.328 35.697 52.636 35.353 C 53.382 35.157 53.354 35.098 53.94 34.598 C 55.222 33.504 55.908 34.852 55.391 35.473 C 53.032 38.304 50.009 37.032 49.068 35.606 C 47.08 32.592 47.096 29.98 47.055 29.362 Z M 36.772 39.62 C 37.38 41.417 34.562 41.301 33.512 38.82 C 33.419 38.6 33.317 37.675 31.529 37.515 C 29.81 37.36 28.995 34.748 27.595 34.948 C 25.905 35.188 25.897 35.214 24.233 34.883 C 22.925 34.623 22.832 35.288 20.754 36.036 C 20.099 36.271 18.01 35.111 20.759 34.201 C 22.642 33.578 22.896 32.53 24.935 33.362 C 26.767 34.11 27.587 32.11 30.103 34.348 C 30.902 35.059 30.771 35.795 32.91 36.077 C 34.572 36.296 35.402 38.753 35.606 38.906 C 36.129 39.299 36.354 39.041 36.772 39.62 Z M 24.144 55.267 C 24.149 55.046 24.429 50.882 24.106 49.249 C 23.491 46.147 21.283 47.359 19.987 44.828 C 19.364 43.61 18.507 41.85 19.952 41.635 C 21.403 41.42 20.303 44.155 23.093 45.387 C 26.654 46.96 26.022 50.626 25.951 54.572 C 25.912 56.758 24.253 56.498 24.144 55.267 Z M 6.947 22.082 C 7.254 22.933 7.319 22.894 7.903 23.579 C 9.265 25.181 8.056 27.621 9.621 29.153 C 10.888 30.395 13.5 30.56 12.792 32.161 C 12.51 32.798 11.556 32.248 11.464 32.195 C 10.741 31.778 10.754 31.769 9.997 31.427 C 5.613 29.449 8.006 26.483 6.346 24.43 C 6.18 24.224 4.85 22.58 5.058 21.386 C 5.207 20.531 6.358 20.181 6.732 21.384 C 6.75 21.44 6.748 21.436 6.947 22.082 Z M 41.049 41.532 C 41.393 40.495 42.272 40.999 42.427 41.151 C 44.347 43.037 42.791 45.683 42.375 46.957 C 42.276 47.259 41.607 49.309 40.395 50.393 C 38.894 51.734 37.937 50.022 39.063 49.189 C 39.916 48.557 39.873 48.497 40.479 46.987 C 41.041 45.584 41.52 44.085 41.662 43.712 C 42.021 42.765 40.963 42.532 41.049 41.532 Z M 46.858 12.777 C 46.855 12.731 46.933 12.706 46.931 12.66 C 46.919 12.469 46.824 12.598 46.635 12.616 C 46.508 12.627 45.671 12.516 45.588 12.505 C 43.568 12.236 44.509 10.517 45.579 10.727 C 46.95 10.996 47.671 10.933 48.13 10.936 C 49.225 10.944 49.483 11.882 49.49 12.198 C 49.557 15.444 49.549 15.86 48.943 15.93 C 47.697 16.074 48.054 14.085 48.059 13.922 C 48.065 13.737 47.857 13.641 47.805 13.942 C 47.696 14.578 47.69 14.57 47.519 15.198 C 47.003 17.096 45.671 15.857 45.857 15.218 C 46.535 12.887 46.71 12.953 46.858 12.777 Z M 36.855 8.845 C 37.396 8.101 37.491 8.192 38.404 8.057 C 39.355 7.916 37.531 6.61 37.97 5.76 C 38.74 4.266 41.446 7.599 40.353 9.092 C 39.812 9.832 39.666 9.643 38.749 9.655 C 38.097 9.664 38.192 11.408 37.652 12.309 C 36.61 14.048 34.5 12.578 35.882 11.569 C 36.879 10.841 36.284 9.804 36.855 8.845 Z M 14.882 32.388 C 14.902 32.369 14.915 32.342 14.935 32.323 C 17.256 30.136 19.52 33.102 18.415 34.783 C 16.808 37.23 12.96 35.005 14.882 32.388 Z M 34.324 50.65 C 36.511 49.741 38.236 52.642 36.613 54.206 C 34.365 56.375 31.417 52.394 34.324 50.65 Z M 33.379 56.298 C 33.372 56.304 31.292 57.821 30.871 56.402 C 30.604 55.504 33.56 54.12 33.537 55.95 C 33.535 56.141 33.492 56.116 33.379 56.298 Z M 42.343 32.601 C 41.779 33.651 40.596 32.982 40.923 32.007 C 41.026 31.701 41.349 30.031 42.366 30.781 C 42.979 31.233 42.455 32.303 42.343 32.601 Z M 39.202 38.152 C 39.228 38.095 39.431 37.48 39.978 37.477 C 41.347 37.467 40.64 39.866 39.863 39.876 C 38.302 39.897 39.194 38.171 39.202 38.152 Z M 32.69 21.69 C 33.207 22.295 33.281 22.621 32.075 23.387 C 30.99 24.076 30.217 22.911 30.998 22.214 C 31.984 21.333 32.564 21.626 32.69 21.69 Z M 44.97 19.273 C 44.785 18.863 44.802 18.619 45.321 17.441 C 45.341 17.394 45.455 17.137 45.882 17.135 C 47.108 17.129 46.54 18.593 46.491 18.72 C 45.908 20.222 45.115 19.392 44.97 19.273 Z M 43.316 26.251 C 42.07 25.724 43.266 23.433 44.129 23.916 C 44.819 24.302 44.605 24.898 44.391 25.516 C 44.065 26.45 43.417 26.277 43.316 26.251 Z M 35.635 49.396 C 35.3 48.943 35.381 48.879 35.795 48.039 C 36.264 47.086 37.019 47.39 37.32 47.814 C 37.633 48.254 37.058 50.5 35.635 49.396 Z M 39.452 42.581 C 39.404 42.678 39.275 43.369 38.486 43.229 C 36.962 42.958 38.557 39.727 39.629 41.296 C 39.881 41.666 39.497 42.447 39.452 42.581 Z M 31.55 48.116 C 31.597 48.086 32.029 47.81 32.213 47.886 C 34.639 48.883 33.181 50.244 32.582 49.917 C 31.031 49.069 31.076 48.682 31.55 48.116 Z M 20.027 37.943 C 19.206 39.171 17.639 37.396 17.998 36.639 C 18.524 35.531 20.419 36.968 20.05 37.903 C 20.045 37.917 20.032 37.929 20.027 37.943 Z M 38.533 44.528 C 39.192 45.655 37.439 47.54 36.842 45.95 C 36.667 45.483 37.387 43.472 38.533 44.528 Z M 41.852 28.863 C 41.879 28.751 42.08 27.905 42.349 27.52 C 42.594 27.168 44.044 26.919 43.535 28.622 C 43.002 30.406 41.89 29.624 41.852 28.863 Z M 40.323 36.305 C 40.27 36.26 39.897 35.937 40.027 35.489 C 40.4 34.204 40.541 34.231 40.67 34.179 C 41.985 33.643 41.898 35.393 41.385 36.181 C 41.036 36.719 40.896 36.575 40.323 36.305 Z M 43.83 22.052 L 44.012 21.344 C 44.55 19.741 45.799 20.766 45.623 21.462 C 45.046 23.748 43.839 22.882 43.83 22.052 Z M 44.867 14.887 C 44.611 15.74 43.29 16.166 42.903 15.948 C 42.531 15.739 42.369 15.018 42.824 14.69 C 43.865 13.94 44.478 13.827 44.827 14.567 C 44.889 14.699 44.86 14.698 44.867 14.887 Z M 30.424 46.93 C 30.461 49.253 26.933 46.733 28.674 45.948 C 29.097 45.758 30.148 46.211 30.424 46.93 Z M 26.123 43.491 C 26.828 43.324 28.499 44.374 27.58 45.301 C 27.016 45.87 24.502 44.385 26.123 43.491 Z M 38.618 17.98 C 39.044 18.697 38.817 18.978 37.595 19.626 C 37.058 19.911 35.48 18.823 37.607 17.801 C 38.137 17.546 38.557 17.925 38.618 17.98 Z M 20.691 38.972 C 20.817 38.864 21.057 38.505 21.497 38.756 C 23.866 40.104 21.982 40.776 21.962 40.776 C 21.847 40.778 19.871 40.181 20.691 38.972 Z M 23.223 41.287 C 23.272 41.23 23.675 40.771 24.113 40.98 C 26.3 42.021 25.021 43.275 24.263 42.87 C 23.157 42.281 22.908 41.94 23.223 41.287 Z M 35.619 19.816 C 36.603 20.901 34.698 21.958 33.99 21.449 C 32.954 20.706 34.72 19.23 35.619 19.816 Z M 29.784 24.955 C 29.498 25.211 28.426 26.4 27.736 25.291 C 27.231 24.48 29.21 23.32 29.766 24.051 C 30.075 24.456 29.821 24.892 29.784 24.955 Z M 23.895 28.906 C 21.75 30.665 21.786 28.674 21.948 28.454 C 22.443 27.779 24.027 27.188 24.102 28.318 C 24.124 28.652 24.111 28.659 23.895 28.906 Z M 25.172 26.204 C 25.253 26.149 26.181 25.35 26.762 25.886 C 27.71 26.76 25.501 28.197 24.867 27.323 C 24.363 26.625 24.904 26.386 25.172 26.204 Z M 21.162 30.29 C 21.21 30.843 21.058 31.025 20.083 31.543 C 19.373 31.921 18.109 31.189 19.489 30.251 C 20.416 29.621 20.728 29.394 21.162 30.29 Z M 40.02 16.418 C 40.11 16.358 40.89 15.832 41.284 15.931 C 41.724 16.042 41.762 16.566 41.767 16.634 C 41.817 17.334 40.312 18.246 39.781 17.558 C 39.26 16.882 39.995 16.443 40.02 16.418 Z" fill="rgb(252, 252, 252)" height="60.38871096938092px" id="EKeFltF7Y" width="60.58298091289174px"/></g></svg>